<svg width="1317" height="437" viewBox="0 0 1317 437" fill="none" xmlns="http://www.w3.org/2000/svg">
<mask id="mask0_2509_212" style="mask-type:luminance" maskUnits="userSpaceOnUse" x="0" y="0" width="1317" height="437">
<path d="M1317 0H0V437H1317V0Z" fill="white"/>
</mask>
<g mask="url(#mask0_2509_212)">
<path d="M0 296.177H186.931L108.484 217.509L138.52 187.459L209.688 258.827C212.719 261.939 214.44 266.101 214.494 270.451V324.881C214.45 326.824 213.999 328.737 213.171 330.495C212.343 332.253 211.157 333.817 209.688 335.086C206.424 338.23 202.058 339.961 197.532 339.906H0V296.177ZM216.897 94.6865V138.415H29.5415L108.484 217.509L78.4475 247.63L7.27937 176.261C4.22892 173.156 2.48336 168.996 2.4029 164.638V109.712C2.4525 107.772 2.91297 105.865 3.75373 104.118C4.59449 102.371 5.7963 100.823 7.27937 99.5767C8.87278 98.0028 10.7609 96.7605 12.8349 95.9212C14.909 95.082 17.1281 94.6624 19.3645 94.6865H216.897Z" fill="#8A8A8A"/>
<path d="M316.193 141.816C308.914 141.816 306.016 138.91 301.14 134.02L263.4 96.1743C260.881 93.619 258.896 90.5852 257.561 87.2507C256.226 83.9162 255.568 80.348 255.626 76.7553V23.8135H299.726V87.3861C299.726 93.1977 304.532 98.0879 310.893 98.0879H424.182V141.816H316.193ZM297.818 334.589L260.008 296.672C257.605 294.263 255.626 290.861 255.626 286.963V149.045H299.726V296.176L398.033 197.663L428.493 227.713L321.988 334.589C318.818 337.891 314.473 339.802 309.903 339.905C307.638 339.865 305.403 339.375 303.329 338.463C301.254 337.55 299.381 336.234 297.818 334.589Z" fill="#8A8A8A"/>
<path d="M725.817 96.1742C725.801 101.969 723.547 107.532 719.527 111.695L661.433 169.952L719.527 228.21C723.547 232.372 725.801 237.936 725.817 243.731V274.844C725.817 282.144 723.414 288.947 718.042 294.263L680.303 332.109C677.823 334.588 674.88 336.553 671.642 337.89C668.404 339.228 664.935 339.913 661.433 339.905H526.8C523.297 339.92 519.826 339.239 516.587 337.901C513.348 336.563 510.406 334.594 507.93 332.109L470.12 294.263C464.819 288.947 462.417 282.144 462.417 274.844V247.133H506.446V285.545C506.446 291.357 511.323 296.176 517.613 296.176H670.621C676.91 296.176 681.787 291.357 681.787 285.545V251.031L638.181 207.373C633.882 202.951 631.451 197.035 631.397 190.86V149.045C631.451 142.869 633.882 136.953 638.181 132.532L681.787 88.8744V54.3595C681.787 48.5479 676.91 43.7286 670.621 43.7286H517.613C511.323 43.7286 506.446 48.5479 506.446 54.3595V92.7724H462.417V65.0612C462.417 57.7613 464.819 50.9576 470.12 45.6421L507.93 7.79624C510.406 5.31067 513.348 3.34189 516.587 2.00375C519.826 0.665608 523.297 -0.0153472 526.8 0.000262406H661.433C664.935 -0.00757341 668.404 0.676933 671.642 2.01463C674.88 3.35233 677.823 5.31699 680.303 7.79624L718.042 45.6421C723.414 50.9576 725.817 57.7613 725.817 65.0612V96.1742Z" fill="#8A8A8A"/>
<path d="M1032.82 96.1742C1032.77 101.962 1030.52 107.512 1026.53 111.695L968.368 169.952L1026.53 228.21C1030.52 232.393 1032.77 237.943 1032.82 243.731V274.844C1032.89 278.438 1032.24 282.01 1030.9 285.346C1029.57 288.682 1027.58 291.715 1025.05 294.263L987.308 332.109C982.273 337.12 975.462 339.924 968.368 339.905H833.806C830.303 339.92 826.831 339.239 823.592 337.901C820.353 336.563 817.411 334.594 814.936 332.109L777.125 294.263C771.825 288.947 769.422 282.144 769.422 274.844V247.133H813.452V285.545C813.452 291.357 818.328 296.176 824.618 296.176H977.626C983.916 296.176 988.722 291.357 988.722 285.545V251.031L945.187 207.373C940.887 202.951 938.457 197.035 938.402 190.86V149.045C938.457 142.869 940.887 136.953 945.187 132.532L988.722 88.8744V54.3595C988.722 48.5479 983.916 43.7286 977.626 43.7286H824.618C818.328 43.7286 813.452 48.5479 813.452 54.3595V92.7724H769.422V65.0612C769.422 57.7613 771.825 50.9576 777.125 45.6421L814.936 7.79624C817.411 5.31067 820.353 3.34189 823.592 2.00375C826.831 0.665608 830.303 -0.0153472 833.806 0.000262406H968.368C975.462 -0.0187983 982.273 2.78492 987.308 7.79624L1025.05 45.6421C1027.58 48.1903 1029.57 51.2228 1030.9 54.559C1032.24 57.8952 1032.89 61.4669 1032.82 65.0612V96.1742Z" fill="#8A8A8A"/>
<path d="M1076.36 437V159.747C1076.36 152.447 1078.76 145.643 1084.13 140.328L1121.87 102.482C1126.88 97.4812 1133.67 94.6777 1140.74 94.6858H1252.62C1256.12 94.6702 1259.59 95.3511 1262.83 96.6893C1266.07 98.0274 1269.01 99.9962 1271.49 102.482L1309.3 140.328C1314.6 145.643 1317 152.447 1317 159.747V286.963C1316.9 290.643 1315.35 294.132 1312.69 296.672L1274.88 334.589C1273.34 336.269 1271.48 337.61 1269.39 338.528C1267.31 339.446 1265.07 339.92 1262.79 339.92C1260.52 339.92 1258.27 339.446 1256.19 338.528C1254.11 337.61 1252.24 336.269 1250.71 334.589L1136.43 219.988L1166.89 189.867L1272.97 296.176V149.045C1272.97 143.233 1268.09 138.414 1261.8 138.414H1131.55C1125.26 138.414 1120.46 143.233 1120.46 149.045V437H1076.36Z" fill="#8A8A8A"/>
</g>
</svg>
